<svg clip-rule="evenodd" fill-rule="evenodd" stroke-linejoin="round" stroke-miterlimit="1.41421" viewBox="0 0 24 24" xmlns="http://www.w3.org/2000/svg"><path d="m0 0h24v24h-24z" fill="none"/><path d="m2.093 9.075c.125-1.941 1.629-3.509 3.562-3.716 2.005-.202 4.136-.311 6.345-.311s4.34.109 6.345.312c1.933.206 3.437 1.774 3.562 3.715.061.956.093 1.933.093 2.925s-.032 1.969-.093 2.925c-.125 1.941-1.629 3.509-3.562 3.716-2.005.202-4.136.311-6.345.311s-4.34-.109-6.345-.312c-1.933-.206-3.437-1.774-3.562-3.715-.061-.956-.093-1.933-.093-2.925s.032-1.969.093-2.925z" fill="#f00"/><path d="m15.055 12-4.909 2.995v-5.99z" fill="#fff"/></svg>